# xmcd
# 
# Track frame offsets:
#     151
#     12971
#     29293
#     44806
#     66551
#     82985
#     103173
#     118303
#     136882
#     152045
#     161386
#     178600
#     199020
# 
# Disc length: 3060
# 
# Revision: 1
# Processed by: cddbd v1.5.2PL0 Copyright (c) Steve Scherf et al.
# Submitted via: fre:ac v1.0.27
# 
DISCID=b20bf20d
DTITLE=Doug Cox and Sam Hurrie - Hungry Ghosts
DYEAR=2005
DGENRE=Blues
TTITLE0=Little Martha
TTITLE1=Cool Drink Of Water
TTITLE2=Beware Of The Man
TTITLE3=Grinning In Your Face
TTITLE4=Carry Me Away
TTITLE5=No Expectations
TTITLE6=Nap Time For Sam
TTITLE7=Fear
TTITLE8=Kansas City
TTITLE9=Valse Frontenac
TTITLE10=Bad News
TTITLE11=Canned Heat Blues
TTITLE12=Red Haired Raga
EXTD=As heard on BluesfestRadio.com
EXTT0=
EXTT1=
EXTT2=
EXTT3=
EXTT4=
EXTT5=
EXTT6=
EXTT7=
EXTT8=
EXTT9=
EXTT10=
EXTT11=
EXTT12=
PLAYORDER=
